/* XPM */
static char *_de0be4f93354dd6ef65bb5a884e73aeO22vXDvNse9uoR9a[] = {
/* columns rows colors chars-per-pixel */
"32 32 8 1 ",
"  c None",
". c #181524",
"X c #3F2832",
"o c #262C43",
"O c #3A4565",
"+ c #9C2A37",
"@ c #5B6A87",
"# c #C0CBDB",
/* pixels */
"                                ",
"                                ",
"                                ",
"                                ",
"            @       @O#         ",
"            @       @O#         ",
"           o@      Oo@#         ",
"          o@       OOo@         ",
"         .o@       OOo@         ",
"         ..@ ooooo@Ooo@         ",
"         ..oo.ooooo@oo@         ",
"          ..o..ooooo@o#         ",
"           ....ooooo@@#         ",
"           ....ooooo@O#         ",
"           ..........@#         ",
"        ...oooOooooo@O#         ",
"        ...oooOooooo@X#X+       ",
"        ...oooOooooo@XXX+       ",
"        ...oooO.....oXX+        ",
"        ...oooO.ooo@oo          ",
"        ...oooO......o          ",
"         ..ooO.oooo@O#          ",
"          .oO..oooo@            ",
"            ...  ..             ",
"            ..   ..             ",
"            oo   ..o            ",
"                                ",
"                                ",
"                                ",
"                                ",
"                                ",
"                                "
};
