/* XPM */
static char *b666d8b75ebe45869243abb4ba2811d8cjWl0oKcIow9NHz8[] = {
/* columns rows colors chars-per-pixel */
"32 32 8 1 ",
"  c Black",
"q c #4B4538",
". c #585041",
"X c #523B40",
"o c #885A47",
"O c #BD7051",
"+ c #90919E",
"@ c #AEC1CE",
/* pixels */
"......OOOO......qqqq..OOOO...qq.",
"qqqqq.OOOO......qq....OOOO...qq.",
"qqqqqqooooqq....qq....oooo..qqq.",
"...qqqooooqq..........oooo..qq..",
"......oooo............oooo..qq..",
"......oooo............oooo..qq..",
"    OO++@@OOOOOOOOOOOO@@++OO    ",
"    OO++@@OOOOOOOOOOOO@@++OO    ",
"    oooooooooooooooooooooooo    ",
"    oooooooooooooooooooooooo    ",
"      XXXX            XXXX      ",
"      XXXX            XXXX      ",
"      oooo            oooo      ",
"      oooo            oooo      ",
"      oooo            oooo      ",
"      oooo            oooo      ",
"      oooo            oooo      ",
"      oooo            oooo      ",
"      oooo            oooo      ",
"      oooo            oooo      ",
"      oooo            oooo      ",
"      oooo            oooo      ",
"    OO++@@OOOOOOOOOOOO@@++OO    ",
"    OO++@@OOOOOOOOOOOO@@++OO    ",
"    oooooooooooooooooooooooo    ",
"    oooooooooooooooooooooooo    ",
"      XXXX            XXXX      ",
"      XXXX            XXXX      ",
"      oooo            oooo      ",
"      oooo            oooo      ",
"      oooo            oooo      ",
"      oooo            oooo      "
};
