/* XPM */
static char *_343e5092c8f41feaa76411d28a932e3HIe7gY2F9zQDVTYM[] = {
/* columns rows colors chars-per-pixel */
"16 16 2 1 ",
"  c #4B4538",
". c #585041",
/* pixels */
"................",
"................",
"................",
"................",
"................",
"................",
".............   ",
"................",
".    ...........",
" ...............",
"............... ",
"........ ..     ",
"................",
"................",
"................",
"................"
};
