/* XPM */
static char *af70f79408964fc09449a39d8ea9e6822mpqun5J29pWqL4p[] = {
/* columns rows colors chars-per-pixel */
"64 64 8 1 ",
"  c black",
". c None",
"X c None",
"o c #B41923",
"O c #FC2735",
"+ c #FD5F64",
"@ c #FDA6A8",
"# c white",
/* pixels */
"................................................................",
"................................................................",
"................................................................",
"................................................................",
"................................................................",
"................................................................",
"................................................................",
"................................................................",
"................................................................",
"................................................................",
"................................................................",
"................................................................",
"................................................................",
"................................................................",
"................................................................",
"................................................................",
"................XXXXXXXXXXXXXXXXXXXXXXXXXXXXXXXX................",
"................XXXXXXXXXXXXXXXXXXXXXXXXXXXXXXXX................",
"................XXXXXXXXXXXXXXXXXXXXXXXXXXXXXXXX................",
"................XXXXXXXXXXX          XXXXXXXXXXX................",
"................XXXXXXXXXXX          XXXXXXXXXXX................",
"................XXXXXXX    ##########    XXXXXXX................",
"................XXXXXXX    ##########    XXXXXXX................",
"................XXXXX  ##@@@@######@@@@##  XXXXX................",
"................XXXXX  ##@@@@######@@@@##  XXXXX................",
"................XXX  ##++++##@@##@@##++++##  XXX................",
"................XXX  ##++++##@@##@@##++++##  XXX................",
"................X  ##++++@@++++##++++@@++++##  X................",
"................X  ##++++@@++++##++++@@++++##  X................",
"................X  @@OO++OOOO######OOOO++OO@@  X................",
"................X  @@OO++OOOO######OOOO++OO@@  X................",
"................X  OO@@@@@@##########@@@@@@OO  X................",
"................X  OO@@@@@@##########@@@@@@OO  X................",
"................XXX  oooo@@OOoo##ooOO@@oooo  XXX................",
"................XXX  oooo@@OOoo##ooOO@@oooo  XXX................",
"................XXXXX  ooOO@@OO##OO@@OOoo  XXXXX................",
"................XXXXX  ooOO@@OO##OO@@OOoo  XXXXX................",
"................XXXXXXX  ooOOOO@@OOOOoo  XXXXXXX................",
"................XXXXXXX  ooOOOO@@OOOOoo  XXXXXXX................",
"................XXXXXXXXX  ooOO@@OOoo  XXXXXXXXX................",
"................XXXXXXXXX  ooOO@@OOoo  XXXXXXXXX................",
"................XXXXXXXXXXX  oo@@oo  XXXXXXXXXXX................",
"................XXXXXXXXXXX  oo@@oo  XXXXXXXXXXX................",
"................XXXXXXXXXXXXX  OO  XXXXXXXXXXXXX................",
"................XXXXXXXXXXXXX  OO  XXXXXXXXXXXXX................",
"................XXXXXXXXXXXXXXX  XXXXXXXXXXXXXXX................",
"................XXXXXXXXXXXXXXX  XXXXXXXXXXXXXXX................",
"................XXXXXXXXXXXXXXXXXXXXXXXXXXXXXXXX................",
"................................................................",
"................................................................",
"................................................................",
"................................................................",
"................................................................",
"................................................................",
"................................................................",
"................................................................",
"................................................................",
"................................................................",
"................................................................",
"................................................................",
"................................................................",
"................................................................",
"................................................................",
"................................................................"
};
