/* XPM */
static char *_49fa08433924ae8ad12672e8eb4a2957XnpI1KfYRjHkJc8[] = {
/* columns rows colors chars-per-pixel */
"32 32 7 1 ",
"  c black",
". c None",
"X c #B6161C",
"o c #FF222B",
"O c #FF5D60",
"+ c #FFA5A6",
"@ c white",
/* pixels */
"................................",
"................................",
"................................",
"...........          ...........",
"...........          ...........",
".......    @@@@@@@@@@    .......",
".......    @@@@@@@@@@    .......",
".....  @@++++@@@@@@++++@@  .....",
".....  @@++++@@@@@@++++@@  .....",
"...  @@OOOO@@++@@++@@OOOO@@  ...",
"...  @@OOOO@@++@@++@@OOOO@@  ...",
".  @@OOOO++OOOO@@OOOO++OOOO@@  .",
".  @@OOOO++OOOO@@OOOO++OOOO@@  .",
".  ++ooOOoooo@@@@@@ooooOOoo++  .",
".  ++ooOOoooo@@@@@@ooooOOoo++  .",
".  oo++++++@@@@@@@@@@++++++oo  .",
".  oo++++++@@@@@@@@@@++++++oo  .",
"...  XXXX++ooXX@@XXoo++XXXX  ...",
"...  XXXX++ooXX@@XXoo++XXXX  ...",
".....  XXoo++oo@@oo++ooXX  .....",
".....  XXoo++oo@@oo++ooXX  .....",
".......  XXoooo++ooooXX  .......",
".......  XXoooo++ooooXX  .......",
".........  XXoo++ooXX  .........",
".........  XXoo++ooXX  .........",
"...........  XX++XX  ...........",
"...........  XX++XX  ...........",
".............  oo  .............",
".............  oo  .............",
"...............  ...............",
"...............  ...............",
"................................"
};
