/* XPM */
static char *_54b4e6f5d4c4f2ee2960f061190e9e0cUY44RhPRyaJVJvF[] = {
/* columns rows colors chars-per-pixel */
"32 32 10 1 ",
"  c None",
". c #181524",
"X c #262C43",
"o c #3A4565",
"O c #BC4A34",
"+ c #FCAD43",
"@ c #FDE66B",
"# c #5B6A87",
"$ c #C0CBDB",
"% c white",
/* pixels */
"                                ",
"                                ",
"                                ",
"                                ",
"                                ",
"                   o$           ",
"                  ooo$          ",
"                  ooo$          ",
"                  ooo$          ",
"                 ooooo$         ",
"          %%++++%%%ooo$         ",
"         +++%%+++++%oo$         ",
"         OO+++%++++%%o$         ",
"          OOO++%%++%+%%         ",
"          OOOOOO+++%#o$         ",
"          OOOO......o$          ",
"          OOOOOOO++%#$          ",
"       OOO+++@OOO++%o$O+        ",
"       OOO+++@OOO++%O$O+        ",
"       OOO+++@OOOOO+OOO+        ",
"       OOO+++@OOOOOOOO+         ",
"       OOO+++@++++%O+           ",
"       OOO+++@++++%O+           ",
"        OO++@O  OO .X           ",
"         O+@O   OO              ",
"           ++   OO+             ",
"                                ",
"                                ",
"                                ",
"                                ",
"                                ",
"                                "
};
