/* XPM */
static char *f3a5d8983aed415af5722c31db7ed699OtnhmC9pPYJ47f1p[] = {
/* columns rows colors chars-per-pixel */
"16 16 15 1 ",
"  c #312227",
". c #3F3030",
"X c #453A35",
"o c #483833",
"O c #39431F",
"+ c #404C23",
"@ c #4C4D28",
"# c #52403A",
"$ c #504B40",
"% c #5E584B",
"& c #645C4F",
"* c #665850",
"= c #6E675C",
"- c #716859",
"; c #7B7261",
/* pixels */
"################",
"#-+@ooo##ooo@+-#",
"#-@o&==##==&o@-#",
"#-o&=--##--=&o-#",
"#o&==--++--==&o#",
"+&===--##--===&+",
"#;;;;;;##;;;;;;#",
" $$$   ..   $$$ ",
" $$ XXX..XXX $$ ",
" $$X***..***X$$ ",
" O$*$$$..$$$*$O ",
" @O$$$$..$$$$O@ ",
"   O        O   ",
" %$@$$$  $$$@$% ",
" %%*@@@  @@@*%% ",
"                "
};
